<?xml version="1.0" standalone="no"?>
<!DOCTYPE svg PUBLIC "-//W3C//DTD SVG 20010904//EN"
 "http://www.w3.org/TR/2001/REC-SVG-20010904/DTD/svg10.dtd">
<svg version="1.0" xmlns="http://www.w3.org/2000/svg"
 width="1200.000000pt" height="1200.000000pt" viewBox="0 0 1200.000000 1200.000000"
 preserveAspectRatio="xMidYMid meet">
<metadata>
Created by potrace 1.15, written by Peter Selinger 2001-2017
</metadata>
<g transform="translate(0.000000,1200.000000) scale(0.100000,-0.100000)"
fill="#000000" stroke="none">
<path d="M5110 11420 c0 -5 -18 -10 -40 -10 -22 0 -40 -4 -40 -10 0 -5 -22
-10 -50 -10 -27 0 -50 -4 -50 -10 0 -5 -18 -10 -40 -10 -22 0 -40 -4 -40 -10
0 -5 -9 -10 -20 -10 -11 0 -20 -4 -20 -10 0 -5 -9 -10 -20 -10 -11 0 -20 -4
-20 -10 0 -5 -8 -10 -18 -10 -10 0 -24 -9 -32 -20 -8 -11 -21 -20 -28 -20 -8
0 -27 -13 -42 -30 -15 -16 -33 -30 -39 -30 -16 0 -261 -247 -261 -263 0 -7 -9
-19 -20 -27 -11 -8 -20 -21 -20 -28 0 -8 -13 -27 -30 -42 -16 -15 -30 -35 -30
-44 0 -9 -4 -16 -10 -16 -5 0 -10 -8 -10 -18 0 -10 -9 -24 -20 -32 -11 -8 -20
-21 -20 -30 0 -9 -9 -22 -20 -30 -11 -8 -20 -22 -20 -32 0 -10 -4 -18 -10 -18
-5 0 -10 -9 -10 -20 0 -11 -4 -20 -10 -20 -5 0 -10 -13 -10 -30 0 -16 -4 -30
-10 -30 -5 0 -10 -13 -10 -30 0 -16 -4 -30 -10 -30 -5 0 -10 -13 -10 -30 0
-16 -4 -30 -10 -30 -5 0 -10 -18 -10 -40 0 -22 -4 -40 -10 -40 -5 0 -10 -18
-10 -40 0 -22 -4 -40 -10 -40 -5 0 -10 -18 -10 -40 0 -22 -4 -40 -10 -40 -5 0
-10 -22 -10 -50 0 -27 -4 -50 -10 -50 -5 0 -10 -22 -10 -50 0 -27 -4 -50 -10
-50 -6 0 -10 -27 -10 -60 0 -33 -4 -60 -10 -60 -6 0 -10 -30 -10 -70 0 -40 -4
-70 -10 -70 -6 0 -10 -37 -10 -90 0 -53 -4 -90 -10 -90 -6 0 -10 -63 -10 -169
0 -126 -3 -170 -12 -174 -10 -3 -10 -9 0 -26 7 -13 12 -60 12 -126 0 -63 4
-105 10 -105 6 0 10 -13 10 -30 0 -16 5 -30 10 -30 6 0 10 -13 10 -30 0 -16 5
-30 10 -30 6 0 10 -9 10 -20 0 -11 5 -20 10 -20 6 0 10 -9 10 -20 0 -11 5 -20
10 -20 6 0 10 -13 10 -30 0 -16 5 -30 10 -30 6 0 10 -9 10 -20 0 -11 5 -20 10
-20 6 0 10 -9 10 -20 0 -11 5 -20 10 -20 6 0 10 -9 10 -20 0 -11 5 -20 10 -20
6 0 10 -9 10 -20 0 -11 5 -20 10 -20 6 0 10 -8 10 -18 0 -10 9 -24 20 -32 11
-8 20 -22 20 -32 0 -10 5 -18 10 -18 6 0 10 -8 10 -18 0 -10 9 -24 20 -32 32
-23 24 -30 -40 -30 -33 0 -60 4 -60 10 0 6 -27 10 -60 10 -33 0 -60 4 -60 10
0 6 -13 10 -30 10 -16 0 -30 5 -30 10 0 6 -47 10 -120 10 -66 0 -120 -4 -120
-9 0 -5 -53 -12 -117 -15 -187 -9 -263 -17 -263 -27 0 -5 -31 -9 -70 -9 -40 0
-70 -4 -70 -10 0 -5 -22 -10 -50 -10 -27 0 -50 -4 -50 -10 0 -6 -27 -10 -60
-10 -33 0 -60 -4 -60 -10 0 -5 -22 -10 -50 -10 -27 0 -50 -4 -50 -10 0 -5 -18
-10 -40 -10 -22 0 -40 -4 -40 -10 0 -5 -18 -10 -40 -10 -22 0 -40 -4 -40 -10
0 -6 -30 -10 -69 -10 -52 0 -70 -4 -75 -15 -4 -11 -13 -14 -31 -9 -15 4 -25 2
-25 -5 0 -6 -9 -11 -20 -11 -11 0 -20 -4 -20 -10 0 -5 -13 -10 -30 -10 -16 0
-30 -4 -30 -10 0 -5 -18 -10 -40 -10 -22 0 -40 -4 -40 -10 0 -5 -13 -10 -30
-10 -16 0 -30 -4 -30 -10 0 -5 -13 -10 -30 -10 -16 0 -30 -4 -30 -10 0 -5 -9
-10 -20 -10 -11 0 -20 -4 -20 -10 0 -5 -13 -10 -30 -10 -16 0 -30 -4 -30 -10
0 -5 -9 -10 -20 -10 -11 0 -20 -4 -20 -10 0 -5 -13 -10 -30 -10 -16 0 -30 -4
-30 -10 0 -5 -13 -10 -30 -10 -16 0 -30 -4 -30 -10 0 -5 -9 -10 -20 -10 -11 0
-20 -4 -20 -10 0 -5 -9 -10 -20 -10 -11 0 -20 -4 -20 -10 0 -5 -9 -10 -20 -10
-11 0 -20 -4 -20 -10 0 -5 -9 -10 -20 -10 -11 0 -20 -4 -20 -10 0 -5 -9 -10
-20 -10 -11 0 -20 -4 -20 -10 0 -5 -9 -10 -20 -10 -11 0 -20 -4 -20 -10 0 -5
-9 -10 -20 -10 -11 0 -20 -4 -20 -10 0 -5 -13 -10 -30 -10 -21 0 -30 -5 -30
-16 0 -20 -24 -44 -44 -44 -9 0 -16 -4 -16 -10 0 -5 -7 -10 -16 -10 -9 0 -29
-13 -44 -30 -15 -16 -33 -30 -40 -30 -7 0 -25 -13 -40 -30 -15 -16 -33 -30
-40 -30 -7 0 -25 -13 -40 -30 -15 -16 -35 -30 -44 -30 -9 0 -16 -8 -16 -18 0
-10 -9 -24 -20 -32 -11 -8 -20 -20 -20 -28 0 -16 -24 -42 -40 -42 -14 0 -100
-86 -100 -101 0 -6 -13 -24 -30 -39 -16 -15 -30 -34 -30 -42 0 -7 -9 -20 -20
-28 -11 -8 -20 -22 -20 -32 0 -10 -4 -18 -10 -18 -5 0 -10 -8 -10 -18 0 -10
-9 -24 -20 -32 -12 -8 -20 -26 -20 -42 0 -15 -4 -28 -10 -28 -5 0 -10 -9 -10
-20 0 -11 -4 -20 -10 -20 -5 0 -10 -9 -10 -20 0 -11 -4 -20 -10 -20 -5 0 -10
-9 -10 -20 0 -11 -3 -20 -8 -20 -9 0 -32 -116 -32 -165 0 -19 -4 -35 -10 -35
-6 0 -10 -37 -10 -90 0 -53 -4 -90 -10 -90 -6 0 -10 -53 -10 -140 0 -87 4
-140 10 -140 6 0 10 -9 10 -20 0 -11 5 -20 10 -20 6 0 10 -18 10 -40 0 -22 5
-40 10 -40 6 0 10 -22 10 -50 0 -27 5 -50 10 -50 6 0 10 -13 10 -30 0 -16 5
-30 10 -30 6 0 10 -13 10 -30 0 -16 5 -30 10 -30 6 0 10 -13 10 -30 0 -16 5
-30 10 -30 6 0 10 -9 10 -20 0 -11 5 -20 10 -20 6 0 10 -13 10 -30 0 -16 5
-30 10 -30 6 0 10 -8 10 -18 0 -10 9 -24 20 -32 11 -8 20 -22 20 -32 0 -10 5
-18 10 -18 6 0 10 -9 10 -20 0 -11 5 -20 10 -20 6 0 10 -9 10 -20 0 -11 5 -20
10 -20 6 0 10 -8 10 -18 0 -10 9 -24 20 -32 11 -8 20 -21 20 -30 0 -9 9 -22
20 -30 11 -8 20 -21 20 -30 0 -9 9 -22 20 -30 11 -8 20 -21 20 -30 0 -9 9 -22
20 -30 11 -8 20 -20 20 -28 0 -7 22 -35 50 -62 27 -27 50 -54 50 -60 0 -6 18
-29 40 -50 22 -21 40 -43 40 -49 0 -15 106 -121 120 -121 6 0 46 -36 90 -80
44 -44 84 -80 90 -80 6 0 46 -36 90 -80 44 -44 85 -80 92 -80 8 0 20 -9 28
-20 8 -11 21 -20 30 -20 9 0 22 -9 30 -20 8 -11 22 -20 32 -20 10 0 18 -4 18
-10 0 -5 9 -10 20 -10 11 0 20 -4 20 -10 0 -5 8 -10 18 -10 10 0 24 -9 32 -20
8 -11 21 -20 30 -20 9 0 22 -9 30 -20 8 -11 22 -20 32 -20 10 0 18 -4 18 -10
0 -5 8 -10 18 -10 10 0 24 -9 32 -20 8 -12 26 -20 42 -20 15 0 28 -4 28 -10 0
-5 9 -10 20 -10 11 0 20 -4 20 -10 0 -5 9 -10 20 -10 11 0 20 -4 20 -10 0 -5
14 -10 30 -10 17 0 30 -4 30 -10 0 -5 9 -10 20 -10 11 0 20 -4 20 -10 0 -5 9
-10 20 -10 11 0 20 -4 20 -10 0 -5 9 -10 20 -10 11 0 20 -4 20 -10 0 -5 9 -10
20 -10 11 0 20 -4 20 -10 0 -5 9 -10 20 -10 11 0 20 -4 20 -10 0 -5 7 -10 15
-10 20 0 85 -65 85 -85 0 -8 5 -15 10 -15 6 0 10 -13 10 -30 0 -16 5 -30 10
-30 6 0 10 -9 10 -19 0 -11 6 -22 13 -25 9 -5 9 -7 0 -12 -7 -3 -13 -19 -13
-35 0 -16 -4 -29 -10 -29 -5 0 -10 -9 -10 -20 0 -11 -4 -20 -10 -20 -5 0 -10
-18 -10 -40 0 -22 -4 -40 -10 -40 -5 0 -10 -13 -10 -30 0 -16 -4 -30 -10 -30
-5 0 -10 -13 -10 -30 0 -16 -4 -30 -10 -30 -6 0 -10 -28 -10 -64 0 -36 -4 -68
-10 -71 -5 -3 -10 -21 -10 -40 0 -19 -4 -37 -10 -40 -5 -3 -10 -19 -10 -36 0
-16 -4 -29 -10 -29 -5 0 -10 -18 -10 -40 0 -22 -4 -40 -10 -40 -6 0 -10 -27
-10 -60 0 -33 -4 -60 -10 -60 -5 0 -10 -22 -10 -50 0 -27 -4 -50 -10 -50 -5 0
-10 -22 -10 -50 0 -27 -4 -50 -10 -50 -6 0 -10 -53 -10 -140 0 -87 4 -140 10
-140 6 0 10 -7 10 -16 0 -32 27 -44 100 -44 72 0 100 12 100 42 0 8 9 20 20
28 11 8 20 22 20 32 0 10 5 18 10 18 6 0 10 23 10 50 0 28 5 50 10 50 6 0 10
9 10 20 0 11 5 20 10 20 6 0 10 26 10 58 0 46 4 60 20 72 17 12 20 26 20 80 0
54 3 68 20 80 17 12 20 26 20 80 0 54 3 68 20 80 11 8 20 22 20 32 0 10 5 18
10 18 6 0 10 23 10 50 0 28 5 50 10 50 6 0 10 47 10 120 0 73 -4 120 -10 120
-6 0 -10 30 -10 70 0 40 -4 70 -10 70 -5 0 -10 9 -10 20 0 11 -4 20 -10 20 -5
0 -10 25 -10 56 0 49 4 59 30 84 17 15 30 35 30 44 0 9 5 16 10 16 6 0 10 9
10 20 0 11 5 20 10 20 6 0 10 7 10 15 0 9 25 40 55 70 50 50 58 55 100 55 25
0 45 -4 45 -10 0 -5 7 -10 15 -10 20 0 105 -85 105 -105 0 -8 5 -15 10 -15 6
0 10 -13 10 -30 0 -16 5 -30 10 -30 6 0 10 -87 10 -240 0 -153 -4 -240 -10
-240 -6 0 -10 -33 -10 -80 0 -47 -4 -80 -10 -80 -6 0 -10 -33 -10 -80 0 -47
-4 -80 -10 -80 -5 0 -10 -22 -10 -50 0 -27 -4 -50 -10 -50 -5 0 -10 -18 -10
-40 0 -22 -4 -40 -10 -40 -5 0 -10 -22 -10 -50 0 -27 -4 -50 -10 -50 -6 0 -10
-33 -10 -80 0 -47 4 -80 10 -80 6 0 10 -9 10 -20 0 -13 7 -20 20 -20 11 0 20
-4 20 -10 0 -5 18 -10 40 -10 22 0 40 5 40 10 0 6 11 10 25 10 42 0 75 41 75
95 0 25 5 45 10 45 6 0 10 9 10 20 0 11 5 20 10 20 6 0 10 27 10 60 0 33 4 60
10 60 6 0 10 43 10 110 0 67 4 110 10 110 6 0 10 27 10 60 0 33 4 60 10 60 6
0 10 17 10 38 0 26 6 42 20 52 16 12 20 26 20 72 0 32 4 58 10 58 6 0 10 9 10
20 0 11 5 20 10 20 6 0 10 14 10 30 0 17 5 30 10 30 6 0 10 17 10 38 0 26 6
42 20 52 11 8 20 22 20 32 0 10 5 18 10 18 6 0 10 7 10 15 0 19 44 65 62 65 8
0 20 9 28 20 8 11 21 20 30 20 9 0 22 9 30 20 8 11 22 20 32 20 10 0 18 5 18
10 0 20 51 10 75 -15 19 -18 25 -35 25 -70 0 -25 5 -45 10 -45 6 0 10 -9 10
-20 0 -11 -4 -20 -10 -20 -6 0 -10 -30 -10 -70 0 -40 -4 -70 -10 -70 -6 0 -10
-30 -10 -70 0 -40 -4 -70 -10 -70 -6 0 -10 -77 -10 -210 0 -133 4 -210 10
-210 6 0 10 -13 10 -30 0 -16 5 -30 10 -30 6 0 10 -13 10 -30 0 -16 5 -30 10
-30 6 0 10 -9 10 -20 0 -11 5 -20 10 -20 6 0 10 -13 10 -28 0 -16 8 -34 20
-42 11 -8 20 -21 20 -30 0 -9 9 -22 20 -30 11 -8 20 -20 20 -28 0 -18 25 -42
43 -42 9 0 17 -4 19 -8 2 -4 18 -18 37 -31 27 -20 35 -21 43 -10 7 11 11 11
15 2 2 -7 13 -13 24 -13 10 0 19 -4 19 -10 0 -6 50 -10 130 -10 80 0 130 4
130 10 0 6 11 10 25 10 26 0 115 78 115 101 0 6 14 24 30 39 17 15 30 35 30
44 0 9 5 16 10 16 6 0 10 7 10 15 0 9 16 31 35 50 26 27 43 35 70 35 l35 0 0
-130 c0 -80 4 -130 10 -130 6 0 10 -9 10 -20 0 -11 5 -20 10 -20 6 0 10 -7 10
-16 0 -33 26 -44 110 -44 84 0 110 11 110 44 0 9 5 16 11 16 7 0 10 24 9 68
-1 37 -2 122 -1 190 1 110 3 122 19 122 10 0 24 -9 32 -20 8 -11 22 -20 32
-20 10 0 18 -4 18 -10 0 -5 7 -10 16 -10 8 0 37 -22 64 -50 27 -27 55 -50 62
-50 8 0 20 -9 28 -20 8 -11 21 -20 28 -20 7 0 31 -18 52 -40 21 -22 46 -40 54
-40 9 0 16 -4 16 -10 0 -6 45 -10 116 -10 130 0 144 6 144 64 0 26 4 36 16 36
26 0 44 26 44 64 0 20 5 36 10 36 6 0 10 18 10 40 0 22 5 40 10 40 6 0 10 18
10 40 0 22 5 40 10 40 6 0 10 -18 10 -40 0 -22 5 -40 10 -40 6 0 10 -13 10
-30 0 -16 5 -30 10 -30 6 0 10 -9 10 -20 0 -11 5 -20 10 -20 6 0 10 -9 10 -20
0 -11 5 -20 10 -20 6 0 10 -9 10 -20 0 -11 5 -20 10 -20 6 0 10 -9 10 -20 0
-11 5 -20 10 -20 6 0 10 -8 10 -18 0 -10 9 -24 20 -32 11 -8 20 -20 20 -28 0
-18 46 -62 65 -62 8 0 15 -4 15 -10 0 -6 40 -10 100 -10 60 0 100 4 100 10 0
6 14 10 30 10 17 0 30 5 30 10 0 6 7 10 15 10 18 0 145 124 145 141 0 6 14 24
30 39 17 15 30 35 30 44 0 9 5 16 10 16 6 0 10 9 10 20 0 11 5 20 10 20 6 0
10 -18 10 -40 0 -22 5 -40 10 -40 6 0 10 -13 10 -30 0 -16 5 -30 10 -30 6 0
10 -11 10 -25 0 -27 59 -95 82 -95 8 0 20 -9 28 -20 8 -12 26 -20 42 -20 15 0
28 -4 28 -10 0 -16 237 -13 244 3 5 9 7 9 12 0 3 -7 14 -13 25 -13 16 0 18 3
9 19 -13 25 -13 81 0 81 6 0 10 9 10 20 0 11 5 20 10 20 6 0 10 8 10 18 0 10
9 24 20 32 11 8 20 20 20 28 0 7 11 24 25 38 l25 25 55 -55 c30 -31 55 -60 55
-66 0 -15 107 -120 123 -120 7 0 19 -9 27 -20 10 -14 26 -20 52 -20 21 0 38
-4 38 -10 0 -6 33 -10 80 -10 47 0 80 4 80 10 0 6 14 10 30 10 17 0 30 5 30
10 0 6 9 10 20 10 11 0 20 5 20 10 0 6 9 10 20 10 11 0 20 5 20 10 0 6 7 10
16 10 9 0 29 14 44 30 15 17 33 30 40 30 6 0 29 18 50 40 44 45 50 48 50 20 0
-11 5 -20 10 -20 6 0 10 -9 10 -20 0 -11 5 -20 10 -20 6 0 10 -13 10 -30 0
-16 5 -30 10 -30 6 0 10 -13 10 -30 0 -16 5 -30 10 -30 6 0 10 -9 10 -20 0
-11 5 -20 10 -20 6 0 10 -9 10 -20 0 -11 5 -20 10 -20 6 0 10 -16 10 -36 0
-27 -7 -43 -30 -64 -16 -15 -30 -33 -30 -40 0 -6 -23 -33 -50 -60 -28 -27 -50
-54 -50 -60 0 -6 -18 -29 -40 -50 -22 -21 -40 -44 -40 -50 0 -6 -18 -29 -40
-50 -22 -21 -40 -44 -40 -50 0 -7 -13 -25 -30 -40 -16 -15 -30 -33 -30 -40 0
-6 -22 -33 -50 -60 -27 -27 -50 -55 -50 -62 0 -8 -9 -20 -20 -28 -11 -8 -20
-21 -20 -30 0 -9 -9 -22 -20 -30 -11 -8 -20 -22 -20 -32 0 -10 -4 -18 -10 -18
-5 0 -10 -9 -10 -20 0 -11 -4 -20 -10 -20 -5 0 -10 -9 -10 -20 0 -11 -4 -20
-10 -20 -5 0 -10 -9 -10 -20 0 -11 -4 -20 -10 -20 -5 0 -10 -13 -10 -30 0 -16
-4 -30 -10 -30 -5 0 -10 -13 -10 -30 0 -16 -4 -30 -10 -30 -5 0 -10 -13 -10
-30 0 -16 -4 -30 -10 -30 -6 0 -10 -73 -10 -200 0 -127 4 -200 10 -200 6 0 10
-30 10 -70 0 -40 4 -70 10 -70 6 0 10 -13 10 -28 0 -16 8 -34 20 -42 12 -8 20
-26 20 -42 0 -15 5 -28 10 -28 6 0 10 -9 10 -20 0 -11 5 -20 10 -20 6 0 10
-13 10 -30 0 -16 5 -30 10 -30 6 0 10 -9 10 -20 0 -11 5 -20 10 -20 6 0 10 -8
10 -18 0 -10 9 -24 20 -32 11 -8 20 -22 20 -32 0 -10 5 -18 10 -18 6 0 10 -7
10 -15 0 -20 165 -185 185 -185 8 0 15 -4 15 -10 0 -5 18 -10 40 -10 22 0 40
-4 40 -10 0 -6 37 -10 90 -10 53 0 90 4 90 10 0 6 14 10 30 10 17 0 30 5 30
10 0 6 9 10 20 10 11 0 20 5 20 10 0 6 7 10 15 10 19 0 85 64 85 82 0 8 9 20
20 28 12 8 20 26 20 42 0 15 5 28 10 28 6 0 10 8 10 18 0 10 9 24 20 32 11 8
20 22 20 32 0 10 5 18 10 18 6 0 10 9 10 20 0 11 5 20 10 20 6 0 10 9 10 20 0
11 5 20 10 20 6 0 10 9 10 20 0 11 5 20 10 20 6 0 10 9 10 20 0 11 5 20 10 20
6 0 10 14 10 30 0 17 5 30 10 30 6 0 10 14 10 30 0 17 5 30 10 30 6 0 10 18
10 40 0 22 5 40 10 40 6 0 10 18 10 40 0 22 5 40 10 40 6 0 10 93 10 260 0
167 -4 260 -10 260 -5 0 -10 23 -10 50 0 28 -4 50 -10 50 -5 0 -10 18 -10 40
0 22 -4 40 -10 40 -5 0 -10 18 -10 40 0 22 -4 40 -10 40 -5 0 -10 14 -10 30 0
17 -4 30 -10 30 -5 0 -10 23 -10 50 0 28 -4 50 -10 50 -5 0 -10 9 -10 20 0 11
-4 20 -10 20 -5 0 -10 14 -10 30 0 17 -4 30 -10 30 -5 0 -10 9 -10 20 0 11 -4
20 -10 20 -5 0 -10 14 -10 30 0 17 -4 30 -10 30 -5 0 -10 14 -10 30 0 17 -4
30 -10 30 -5 0 -10 14 -10 30 0 17 -4 30 -10 30 -5 0 -10 14 -10 30 0 17 -4
30 -10 30 -5 0 -10 9 -10 20 0 11 -4 20 -10 20 -5 0 -10 7 -10 15 0 17 164
185 181 185 6 0 24 -13 39 -30 17 -18 38 -30 54 -30 14 0 26 -4 26 -10 0 -6
33 -10 80 -10 47 0 80 4 80 10 0 6 14 10 30 10 17 0 30 5 30 10 0 6 9 10 20
10 11 0 20 5 20 10 0 6 7 10 15 10 20 0 85 65 85 85 0 8 5 15 10 15 6 0 10 9
10 20 0 11 5 20 10 20 6 0 10 21 10 46 0 40 16 74 34 74 3 0 6 -18 6 -40 0
-22 5 -40 10 -40 6 0 10 -9 10 -20 0 -11 5 -20 10 -20 6 0 10 -8 10 -18 0 -10
9 -24 20 -32 11 -8 20 -21 20 -30 0 -9 9 -22 20 -30 11 -8 20 -20 20 -27 0
-19 106 -123 125 -123 8 0 15 -4 15 -10 0 -5 9 -10 20 -10 11 0 20 -4 20 -10
0 -6 73 -10 200 -10 127 0 200 4 200 10 0 6 9 10 20 10 11 0 20 5 20 10 0 6 7
10 15 10 9 0 40 25 70 55 50 50 55 58 55 100 0 25 5 45 10 45 6 0 10 27 10 60
0 33 4 60 10 60 6 0 10 23 10 50 0 28 5 50 10 50 6 0 10 -8 10 -18 0 -10 9
-24 20 -32 11 -8 20 -21 20 -28 0 -8 14 -27 30 -42 17 -15 30 -33 30 -39 0
-16 46 -61 62 -61 8 0 20 -9 28 -20 8 -11 22 -20 32 -20 10 0 18 -4 18 -10 0
-6 47 -10 120 -10 73 0 120 4 120 10 0 6 7 10 15 10 23 0 65 46 65 71 0 11 14
34 30 49 17 15 30 34 30 42 0 7 9 20 20 28 11 8 20 20 20 28 0 22 26 42 54 42
19 0 26 5 26 20 0 11 5 20 10 20 6 0 10 14 10 30 0 17 5 30 10 30 6 0 10 9 10
20 0 11 5 20 10 20 6 0 10 14 10 30 0 17 5 30 10 30 6 0 10 7 10 16 0 9 14 29
30 44 17 15 30 33 30 40 0 6 18 29 40 50 22 21 40 44 40 50 0 17 26 40 44 40
9 0 16 8 16 20 0 11 5 20 10 20 6 0 10 48 10 125 l0 126 -35 34 -34 35 -141 0
c-163 0 -170 -3 -170 -74 l0 -46 66 0 c45 0 70 -5 80 -15 14 -13 11 -19 -25
-54 -23 -22 -41 -47 -41 -55 0 -9 -7 -16 -15 -16 -20 0 -125 105 -125 125 0 8
-4 15 -10 15 -5 0 -10 9 -10 20 0 11 -4 20 -10 20 -5 0 -10 9 -10 20 0 11 -4
20 -10 20 -5 0 -10 13 -10 28 0 16 -8 34 -20 42 -14 10 -20 26 -20 52 0 21 -4
38 -10 38 -5 0 -10 9 -10 20 0 11 -4 20 -10 20 -5 0 -10 14 -10 30 0 17 -4 30
-10 30 -5 0 -10 14 -10 30 0 17 -4 30 -10 30 -5 0 -10 9 -10 20 0 11 -4 20
-10 20 -5 0 -10 9 -10 20 0 11 -4 20 -10 20 -5 0 -10 9 -10 20 0 11 -4 20 -10
20 -5 0 -10 23 -10 50 0 28 -4 50 -10 50 -5 0 -10 9 -10 20 0 11 -4 20 -10 20
-5 0 -10 14 -10 30 0 17 -4 30 -10 30 -5 0 -10 18 -10 40 0 22 -4 40 -10 40
-5 0 -10 14 -10 30 0 17 -4 30 -9 30 -15 0 -20 51 -5 57 21 8 17 23 -6 23 -17
0 -20 7 -20 40 0 22 -4 40 -10 40 -5 0 -10 9 -10 20 0 11 -4 20 -10 20 -5 0
-10 14 -10 30 0 17 -4 30 -10 30 -5 0 -10 9 -10 20 0 11 -4 20 -10 20 -5 0
-10 14 -10 30 0 17 -4 30 -10 30 -5 0 -10 9 -10 20 0 11 -4 20 -10 20 -5 0
-10 8 -10 18 0 10 -9 24 -20 32 -14 10 -20 26 -20 52 0 21 -4 38 -10 38 -5 0
-10 14 -10 30 0 17 -4 30 -10 30 -5 0 -10 9 -10 20 0 11 -4 20 -10 20 -5 0
-10 9 -10 20 0 11 -4 20 -10 20 -5 0 -10 14 -10 30 0 17 -4 30 -10 30 -5 0
-10 9 -10 20 0 11 -4 20 -10 20 -5 0 -10 9 -10 20 0 11 -4 20 -10 20 -5 0 -10
9 -10 20 0 11 -4 20 -10 20 -5 0 -10 14 -10 30 0 17 -4 30 -10 30 -5 0 -10 14
-10 30 0 17 -4 30 -10 30 -5 0 -10 9 -10 20 0 11 -4 20 -10 20 -5 0 -10 8 -10
18 0 10 -9 24 -20 32 -11 8 -20 22 -20 32 0 10 -4 18 -10 18 -5 0 -10 9 -10
20 0 11 -4 20 -10 20 -5 0 -10 9 -10 20 0 11 -4 20 -10 20 -5 0 -10 9 -10 20
0 11 -4 20 -10 20 -5 0 -10 9 -10 20 0 11 -4 20 -10 20 -5 0 -10 8 -10 18 0
10 -9 24 -20 32 -12 8 -20 26 -20 42 0 15 -4 28 -10 28 -5 0 -10 9 -10 20 0
11 -4 20 -10 20 -5 0 -10 9 -10 20 0 11 -4 20 -10 20 -5 0 -10 9 -10 20 0 11
-4 20 -10 20 -5 0 -10 9 -10 20 0 11 -4 20 -10 20 -5 0 -10 9 -10 20 0 11 -4
20 -10 20 -5 0 -10 9 -10 20 0 11 -4 20 -10 20 -5 0 -10 8 -10 18 0 10 -9 24
-20 32 -11 8 -20 22 -20 32 0 10 -4 18 -10 18 -5 0 -10 9 -10 20 0 11 -4 20
-10 20 -5 0 -10 9 -10 20 0 11 -4 20 -10 20 -5 0 -10 9 -10 20 0 11 -4 20 -10
20 -5 0 -10 8 -10 18 0 10 -9 24 -20 32 -11 8 -20 22 -20 32 0 10 -4 18 -10
18 -5 0 -10 9 -10 20 0 11 -4 20 -10 20 -5 0 -10 9 -10 20 0 11 -4 20 -10 20
-5 0 -10 14 -10 30 0 17 -4 30 -10 30 -5 0 -10 9 -10 20 0 11 -4 20 -10 20 -5
0 -10 9 -10 20 0 11 -4 20 -10 20 -5 0 -10 9 -10 20 0 11 -4 20 -10 20 -5 0
-10 9 -10 20 0 11 -4 20 -10 20 -5 0 -10 9 -10 20 0 11 -4 20 -10 20 -5 0 -10
8 -10 18 0 10 -9 24 -20 32 -11 8 -20 22 -20 32 0 10 -4 18 -10 18 -5 0 -10 9
-10 20 0 11 -4 20 -10 20 -5 0 -10 14 -10 30 0 17 -4 30 -10 30 -5 0 -10 9
-10 20 0 11 -4 20 -10 20 -5 0 -10 9 -10 20 0 11 -4 20 -10 20 -5 0 -10 14
-10 30 0 17 -4 30 -10 30 -5 0 -10 14 -10 30 0 17 -4 30 -10 30 -5 0 -10 9
-10 20 0 11 -4 20 -10 20 -5 0 -10 8 -10 18 0 10 -9 24 -20 32 -12 8 -20 26
-20 42 0 15 -4 28 -10 28 -5 0 -10 9 -10 20 0 11 -4 20 -10 20 -5 0 -10 9 -10
20 0 11 -4 20 -10 20 -5 0 -10 9 -10 20 0 11 -4 20 -10 20 -5 0 -10 14 -10 30
0 17 -4 30 -10 30 -5 0 -10 14 -10 30 0 17 -4 30 -10 30 -5 0 -10 7 -10 16 0
9 -13 29 -30 44 -16 15 -30 35 -30 44 0 9 -4 16 -10 16 -5 0 -10 8 -10 18 0
10 -9 24 -20 32 -11 8 -20 22 -20 32 0 10 -4 18 -10 18 -5 0 -10 9 -10 20 0
11 -4 20 -10 20 -5 0 -10 9 -10 20 0 11 -4 20 -10 20 -5 0 -10 9 -10 20 0 11
-4 20 -10 20 -5 0 -10 9 -10 20 0 11 -4 20 -10 20 -5 0 -10 9 -10 20 0 11 -4
20 -10 20 -5 0 -10 14 -10 30 0 17 -4 30 -10 30 -5 0 -10 9 -10 20 0 11 -4 20
-10 20 -5 0 -10 9 -10 20 0 11 -4 20 -10 20 -5 0 -10 9 -10 20 0 11 -4 20 -10
20 -5 0 -10 14 -10 30 0 17 -4 30 -10 30 -5 0 -10 8 -10 18 0 10 -9 24 -20 32
-11 8 -20 22 -20 32 0 10 -4 18 -10 18 -5 0 -10 14 -10 30 0 17 -4 30 -10 30
-5 0 -10 8 -10 18 0 10 -9 24 -20 32 -11 8 -20 21 -20 30 0 9 -9 22 -20 30
-11 8 -20 21 -20 30 0 9 -9 22 -20 30 -11 8 -20 22 -20 32 0 10 -4 18 -10 18
-5 0 -10 9 -10 20 0 11 -4 20 -10 20 -5 0 -10 9 -10 20 0 11 -4 20 -10 20 -5
0 -10 9 -10 20 0 11 -4 20 -10 20 -5 0 -10 9 -10 20 0 11 -4 20 -10 20 -5 0
-10 9 -10 20 0 11 -4 20 -10 20 -5 0 -10 8 -10 18 0 10 -9 24 -20 32 -11 8
-20 22 -20 32 0 10 -4 18 -10 18 -5 0 -10 9 -10 20 0 11 -4 20 -10 20 -5 0
-10 9 -10 20 0 11 -4 20 -10 20 -5 0 -10 9 -10 20 0 11 -4 20 -10 20 -5 0 -10
8 -10 18 0 10 -9 24 -20 32 -11 8 -20 22 -20 32 0 10 -4 18 -10 18 -5 0 -10 9
-10 20 0 11 -4 20 -10 20 -5 0 -10 9 -10 20 0 11 -4 20 -10 20 -5 0 -10 8 -10
18 0 10 -9 24 -20 32 -11 8 -20 22 -20 32 0 10 -4 18 -10 18 -5 0 -10 9 -10
20 0 11 -4 20 -10 20 -5 0 -10 9 -10 20 0 11 -4 20 -10 20 -5 0 -10 9 -10 20
0 11 -4 20 -10 20 -5 0 -10 14 -10 30 0 17 -4 30 -10 30 -5 0 -10 9 -10 20 0
11 -4 20 -10 20 -5 0 -10 9 -10 20 0 11 -4 20 -10 20 -5 0 -10 14 -10 30 0 17
-4 30 -10 30 -5 0 -10 8 -10 18 0 10 -9 24 -20 32 -11 8 -20 22 -20 32 0 10
-4 18 -10 18 -5 0 -10 9 -10 20 0 11 -4 20 -10 20 -5 0 -10 8 -10 18 0 10 -9
24 -20 32 -11 8 -20 22 -20 32 0 10 -4 18 -10 18 -5 0 -10 8 -10 18 0 10 -9
24 -20 32 -11 8 -20 22 -20 32 0 10 -4 18 -10 18 -5 0 -10 7 -10 16 0 9 -13
29 -30 44 -16 15 -30 33 -30 39 0 14 -306 321 -321 321 -5 0 -32 23 -59 50
-27 28 -54 50 -60 50 -7 0 -25 14 -40 30 -15 17 -33 30 -40 30 -7 0 -25 14
-40 30 -15 17 -34 30 -42 30 -7 0 -20 9 -28 20 -8 11 -22 20 -32 20 -10 0 -18
5 -18 10 0 6 -8 10 -18 10 -10 0 -24 9 -32 20 -8 11 -22 20 -32 20 -10 0 -18
5 -18 10 0 6 -9 10 -20 10 -11 0 -20 5 -20 10 0 6 -9 10 -20 10 -11 0 -20 5
-20 10 0 6 -9 10 -20 10 -11 0 -20 5 -20 10 0 6 -13 10 -30 10 -16 0 -30 5
-30 10 0 6 -9 10 -20 10 -11 0 -20 5 -20 10 0 6 -9 10 -20 10 -11 0 -20 5 -20
10 0 6 -9 10 -20 10 -11 0 -20 5 -20 10 0 6 -9 10 -20 10 -11 0 -20 5 -20 10
0 6 -9 10 -20 10 -11 0 -20 5 -20 10 0 6 -9 10 -20 10 -11 0 -20 5 -20 10 0 6
-9 10 -20 10 -11 0 -20 5 -20 10 0 6 -9 10 -20 10 -11 0 -20 5 -20 10 0 6 -13
10 -30 10 -16 0 -30 5 -30 10 0 6 -9 10 -20 10 -11 0 -20 5 -20 10 0 6 -9 10
-20 10 -11 0 -20 5 -20 10 0 6 -9 10 -20 10 -11 0 -20 5 -20 10 0 6 -13 10
-30 10 -16 0 -30 5 -30 10 0 6 -13 10 -30 10 -16 0 -30 5 -30 10 0 6 -13 10
-30 10 -16 0 -30 5 -30 10 0 6 -13 10 -30 10 -16 0 -30 5 -30 10 0 6 -30 10
-70 10 -40 0 -70 4 -70 10 0 6 -40 10 -100 10 -60 0 -100 4 -100 10 0 6 -30
10 -70 10 -40 0 -70 4 -70 10 0 6 -27 10 -60 10 -33 0 -60 4 -60 10 0 6 -27
10 -60 10 -33 0 -60 4 -60 10 0 6 -57 10 -150 10 -93 0 -150 -4 -150 -10z
m320 -120 c0 -5 23 -10 50 -10 28 0 50 -4 50 -10 0 -5 14 -10 30 -10 17 0 30
-4 30 -10 0 -6 40 -10 100 -10 60 0 100 -4 100 -10 0 -6 50 -10 130 -10 80 0
130 -4 130 -10 0 -5 18 -10 40 -10 22 0 40 -4 40 -10 0 -5 14 -10 30 -10 17 0
30 -4 30 -10 0 -5 9 -10 20 -10 11 0 20 -4 20 -10 0 -5 18 -10 40 -10 22 0 40
-4 40 -10 0 -5 7 -10 16 -10 20 0 44 -24 44 -44 0 -9 8 -16 20 -16 11 0 20 -4
20 -10 0 -5 9 -10 20 -10 11 0 20 -4 20 -10 0 -5 14 -10 30 -10 17 0 30 -4 30
-10 0 -5 9 -10 20 -10 11 0 20 -4 20 -10 0 -5 9 -10 20 -10 11 0 20 -4 20 -10
0 -5 7 -10 16 -10 9 0 29 -13 44 -30 15 -16 35 -30 44 -30 9 0 16 -4 16 -10 0
-5 23 -10 50 -10 28 0 50 -4 50 -10 0 -5 9 -10 20 -10 11 0 20 -4 20 -10 0 -5
8 -10 18 -10 10 0 24 -9 32 -20 8 -11 22 -20 32 -20 10 0 18 -4 18 -10 0 -5 9
-10 20 -10 11 0 20 -4 20 -10 0 -5 8 -10 18 -10 10 0 24 -9 32 -20 8 -11 22
-20 32 -20 10 0 18 -4 18 -10 0 -5 8 -10 18 -10 10 0 24 -9 32 -20 8 -11 20
-20 28 -20 7 0 44 -31 82 -70 38 -38 75 -70 82 -70 8 0 20 -9 28 -20 8 -11 20
-20 27 -20 16 0 343 -325 343 -341 0 -6 14 -24 30 -39 17 -15 30 -33 30 -40 0
-6 18 -29 40 -50 22 -21 40 -46 40 -54 0 -9 5 -16 10 -16 6 0 10 -9 10 -20 0
-11 5 -20 10 -20 6 0 10 -12 10 -26 0 -16 12 -37 30 -54 26 -24 30 -35 30 -82
0 -42 4 -57 20 -68 11 -8 20 -22 20 -32 0 -10 5 -18 10 -18 6 0 10 -18 10 -40
0 -22 5 -40 10 -40 6 0 10 -13 10 -28 0 -16 8 -34 20 -42 12 -8 20 -26 20 -42
0 -15 5 -28 10 -28 6 0 10 -9 10 -20 0 -11 5 -20 10 -20 6 0 10 -9 10 -20 0
-11 5 -20 10 -20 6 0 10 -8 10 -18 0 -10 9 -24 20 -32 11 -8 20 -22 20 -32 0
-10 5 -18 10 -18 6 0 10 -12 10 -26 0 -16 12 -37 30 -54 17 -15 30 -33 30 -40
0 -20 27 -40 54 -40 19 0 26 -5 26 -20 0 -11 5 -20 10 -20 6 0 10 -9 10 -20 0
-11 5 -20 10 -20 6 0 10 -13 10 -28 0 -16 8 -34 20 -42 11 -8 20 -26 20 -40 0
-14 9 -32 20 -40 11 -8 20 -22 20 -32 0 -10 5 -18 10 -18 6 0 10 -13 10 -30 0
-16 5 -30 10 -30 6 0 10 -9 10 -20 0 -11 5 -20 10 -20 6 0 10 -8 10 -18 0 -10
9 -24 20 -32 11 -8 20 -21 20 -30 0 -9 9 -22 20 -30 11 -8 20 -22 20 -32 0
-10 5 -18 10 -18 6 0 10 -9 10 -20 0 -11 5 -20 10 -20 6 0 10 -13 10 -28 0
-16 8 -34 20 -42 11 -8 20 -22 20 -32 0 -10 5 -18 10 -18 6 0 10 -9 10 -20 0
-11 5 -20 10 -20 6 0 10 -9 10 -20 0 -11 5 -20 10 -20 6 0 10 -9 10 -20 0 -11
5 -20 10 -20 6 0 10 -9 10 -20 0 -11 5 -20 10 -20 6 0 10 -22 10 -50 0 -27 5
-50 10 -50 6 0 10 -12 10 -26 0 -16 12 -37 30 -54 17 -15 30 -34 30 -42 0 -7
9 -20 20 -28 11 -8 20 -22 20 -32 0 -10 5 -18 10 -18 6 0 10 -9 10 -20 0 -11
5 -20 10 -20 6 0 10 -9 10 -20 0 -11 5 -20 10 -20 6 0 10 -9 10 -20 0 -11 5
-20 10 -20 6 0 10 -9 10 -20 0 -11 5 -20 10 -20 6 0 10 -13 10 -30 0 -16 5
-30 10 -30 6 0 10 -9 10 -20 0 -11 5 -20 10 -20 6 0 10 -9 10 -20 0 -11 5 -20
10 -20 6 0 10 -9 10 -20 0 -11 5 -20 10 -20 6 0 10 -7 10 -16 0 -9 14 -29 30
-44 17 -15 30 -35 30 -44 0 -9 5 -16 10 -16 6 0 10 -13 10 -30 0 -16 5 -30 10
-30 6 0 10 -13 10 -30 0 -16 5 -30 10 -30 6 0 10 -13 10 -30 0 -16 5 -30 10
-30 6 0 10 -13 10 -30 0 -16 5 -30 10 -30 6 0 10 -13 10 -30 0 -16 5 -30 10
-30 6 0 10 -13 10 -30 0 -16 5 -30 10 -30 6 0 10 -9 10 -20 0 -11 5 -20 10
-20 6 0 10 -9 10 -20 0 -11 5 -20 10 -20 6 0 10 -9 10 -20 0 -11 5 -20 10 -20
6 0 10 -8 10 -18 0 -10 9 -24 20 -32 11 -8 20 -22 20 -32 0 -10 5 -18 10 -18
6 0 10 -9 10 -20 0 -11 5 -20 10 -20 6 0 10 -9 10 -20 0 -11 5 -20 10 -20 6 0
10 -9 10 -20 0 -11 5 -20 10 -20 6 0 10 -9 10 -20 0 -11 5 -20 10 -20 6 0 10
-9 10 -20 0 -11 5 -20 10 -20 6 0 10 -13 10 -28 0 -16 8 -34 20 -42 11 -8 20
-25 20 -38 0 -14 16 -38 40 -62 36 -35 40 -43 40 -90 0 -41 5 -56 25 -75 13
-14 29 -25 35 -25 21 0 60 -49 60 -75 0 -14 5 -25 10 -25 6 0 10 -8 10 -18 0
-10 9 -24 20 -32 12 -8 20 -26 20 -42 0 -15 5 -28 10 -28 6 0 10 -9 10 -20 0
-11 5 -20 10 -20 6 0 10 -13 10 -28 0 -16 8 -34 20 -42 11 -8 20 -26 20 -40 0
-14 9 -32 20 -40 11 -8 20 -21 20 -30 0 -9 9 -22 20 -30 11 -8 20 -22 20 -32
0 -10 5 -18 10 -18 6 0 10 -9 10 -20 0 -11 5 -20 10 -20 6 0 10 -9 10 -20 0
-11 5 -20 10 -20 6 0 10 -13 10 -28 0 -16 8 -34 20 -42 12 -8 20 -26 20 -42 0
-15 5 -28 10 -28 6 0 10 -9 10 -20 0 -11 5 -20 10 -20 6 0 10 -9 10 -20 0 -11
5 -20 10 -20 6 0 10 -9 10 -20 0 -11 5 -20 10 -20 6 0 10 -13 10 -30 0 -16 5
-30 10 -30 6 0 10 -8 10 -18 0 -10 9 -24 20 -32 12 -8 20 -26 20 -42 0 -15 5
-28 10 -28 6 0 10 -9 10 -20 0 -11 5 -20 10 -20 6 0 10 -13 10 -30 0 -16 5
-30 10 -30 6 0 10 -8 10 -18 0 -10 9 -24 20 -32 11 -8 20 -22 20 -32 0 -10 5
-18 10 -18 6 0 10 -13 10 -30 0 -16 5 -30 10 -30 6 0 10 -9 10 -20 0 -11 5
-20 10 -20 6 0 10 -9 10 -20 0 -11 5 -20 10 -20 6 0 10 -18 10 -40 0 -22 5
-40 10 -40 6 0 10 -13 10 -30 0 -16 5 -30 10 -30 6 0 10 -13 10 -30 0 -16 5
-30 10 -30 6 0 10 -13 10 -30 0 -16 4 -30 9 -30 5 0 11 -19 15 -42 10 -85 18
-118 27 -118 5 0 9 -13 9 -30 0 -16 5 -30 10 -30 6 0 10 -9 10 -20 0 -11 5
-20 10 -20 6 0 10 -13 10 -30 0 -16 5 -30 10 -30 6 0 10 -9 10 -20 0 -11 5
-20 10 -20 6 0 10 -13 10 -30 0 -16 5 -30 10 -30 6 0 10 -18 10 -40 0 -22 5
-40 10 -40 6 0 10 -13 10 -30 0 -16 5 -30 10 -30 6 0 10 -9 10 -20 0 -11 5
-20 10 -20 6 0 10 -13 10 -30 0 -16 5 -30 10 -30 6 0 10 -13 10 -30 0 -16 5
-30 10 -30 6 0 10 -9 10 -20 0 -11 5 -20 10 -20 6 0 10 -8 10 -18 0 -10 9 -24
20 -32 15 -11 20 -26 20 -62 0 -26 5 -48 10 -48 6 0 10 -8 10 -18 0 -10 9 -24
20 -32 11 -8 20 -20 20 -28 0 -7 36 -48 80 -92 44 -44 80 -82 80 -85 0 -3 -9
-5 -20 -5 -12 0 -20 -7 -20 -16 0 -9 -13 -29 -30 -44 -37 -34 -41 -87 -10
-110 21 -15 28 -70 10 -70 -5 0 -10 -9 -10 -20 0 -11 -4 -20 -10 -20 -5 0 -10
-8 -10 -18 0 -10 -9 -24 -20 -32 -11 -8 -20 -20 -20 -27 0 -7 -34 -47 -75 -88
-79 -80 -109 -91 -135 -55 -8 11 -20 20 -28 20 -16 0 -82 65 -82 81 0 6 -14
24 -30 39 -17 15 -30 35 -30 44 0 9 -4 16 -10 16 -5 0 -10 9 -10 20 0 11 -4
20 -10 20 -5 0 -10 21 -10 46 0 38 -5 51 -30 74 -16 15 -30 35 -30 44 0 9 -4
16 -10 16 -5 0 -10 14 -10 30 0 17 -4 30 -10 30 -5 0 -10 8 -10 18 0 10 -9 24
-20 32 -12 8 -20 26 -20 42 0 15 -4 28 -10 28 -5 0 -10 8 -10 18 0 10 -9 24
-20 32 -11 8 -20 21 -20 28 0 8 -13 27 -30 42 -16 15 -30 33 -30 40 0 29 -29
40 -110 40 -84 0 -110 -11 -110 -44 0 -14 -18 -16 -120 -16 -73 0 -120 -4
-120 -10 0 -6 -26 -10 -58 -10 -46 0 -60 -4 -72 -20 -8 -11 -22 -20 -32 -20
-10 0 -18 -4 -18 -10 0 -5 -7 -10 -15 -10 -8 0 -58 -43 -110 -95 -70 -69 -95
-101 -95 -120 0 -14 -4 -25 -10 -25 -5 0 -10 -13 -10 -30 0 -16 -4 -30 -10
-30 -6 0 -10 -27 -10 -60 0 -33 -4 -60 -10 -60 -5 0 -10 -18 -10 -40 0 -22 -4
-40 -10 -40 -5 0 -10 -18 -10 -40 0 -22 -4 -40 -10 -40 -5 0 -10 -7 -10 -15 0
-20 -105 -125 -125 -125 -8 0 -15 -4 -15 -10 0 -5 -18 -10 -40 -10 -22 0 -40
5 -40 10 0 6 -7 10 -15 10 -9 0 -31 16 -50 35 -27 26 -35 43 -35 70 0 19 5 35
10 35 6 0 10 14 10 30 0 17 5 30 10 30 6 0 10 18 10 40 0 22 5 40 10 40 6 0
10 9 10 20 0 11 5 20 10 20 6 0 10 18 10 40 0 22 5 40 10 40 6 0 10 14 10 30
0 17 5 30 10 30 6 0 10 9 10 20 0 11 5 20 10 20 6 0 10 14 10 30 0 17 5 30 10
30 6 0 10 18 10 40 0 22 5 40 10 40 6 0 10 23 10 50 0 28 5 50 10 50 6 0 10
33 10 80 0 47 4 80 10 80 6 0 10 23 10 50 0 28 5 50 10 50 6 0 10 47 10 120 0
73 4 120 10 120 6 0 10 27 10 60 0 33 -4 60 -10 60 -5 0 -10 14 -10 30 0 17
-4 30 -10 30 -5 0 -10 9 -10 20 0 11 -4 20 -10 20 -5 0 -10 9 -10 20 0 11 -4
20 -10 20 -5 0 -10 7 -10 15 0 20 -65 85 -85 85 -8 0 -15 5 -15 10 0 6 -9 10
-20 10 -11 0 -20 5 -20 10 0 6 -35 10 -86 10 l-86 0 -38 -40 c-21 -22 -46 -40
-54 -40 -11 0 -16 -9 -16 -28 0 -16 -8 -34 -20 -42 -19 -13 -20 -26 -20 -182
0 -105 4 -168 10 -168 6 0 10 -9 10 -20 0 -11 5 -20 10 -20 6 0 10 -40 10
-100 0 -60 4 -100 10 -100 6 0 10 -33 10 -80 0 -47 4 -80 10 -80 6 0 10 -30
10 -70 0 -40 4 -70 10 -70 6 0 10 -60 10 -160 0 -100 4 -160 10 -160 6 0 10
-9 10 -20 0 -11 5 -20 10 -20 6 0 10 -26 10 -58 0 -46 -4 -60 -20 -72 -11 -8
-20 -22 -20 -32 0 -10 -4 -18 -10 -18 -5 0 -10 -7 -10 -15 0 -14 -102 -125
-115 -125 -3 0 -5 9 -5 20 0 11 -4 20 -10 20 -5 0 -10 8 -10 18 0 10 -9 24
-20 32 -12 8 -20 26 -20 42 0 15 -4 28 -10 28 -5 0 -10 13 -10 28 0 16 -8 34
-20 42 -14 10 -20 26 -20 52 0 21 -4 38 -10 38 -5 0 -10 9 -10 20 0 11 -4 20
-10 20 -5 0 -10 9 -10 20 0 11 5 20 10 20 6 0 10 9 10 20 0 11 5 20 10 20 6 0
10 23 10 50 0 28 5 50 10 50 6 0 10 30 10 70 0 40 4 70 10 70 6 0 10 33 10 80
0 47 -4 80 -10 80 -5 0 -10 14 -10 30 0 17 -4 30 -10 30 -5 0 -10 18 -10 40 0
30 -4 40 -16 40 -20 0 -44 24 -44 44 0 13 -14 16 -76 16 -78 0 -104 -11 -104
-44 0 -9 -4 -16 -10 -16 -5 0 -10 -13 -10 -30 0 -16 -4 -30 -10 -30 -5 0 -10
-18 -10 -40 0 -22 5 -40 10 -40 6 0 10 -43 10 -110 0 -67 4 -110 10 -110 6 0
10 -18 10 -40 0 -22 5 -40 10 -40 6 0 10 -9 10 -20 0 -11 5 -20 10 -20 6 0 10
-18 10 -40 0 -22 5 -40 10 -40 6 0 10 -9 10 -20 0 -11 -4 -20 -10 -20 -5 0
-10 -7 -10 -15 0 -20 -165 -185 -185 -185 -8 0 -15 -4 -15 -10 0 -5 -9 -10
-20 -10 -11 0 -20 -4 -20 -10 0 -5 -9 -10 -20 -10 -11 0 -20 -4 -20 -10 0 -5
-22 -10 -50 -10 -27 0 -50 5 -50 10 0 6 -7 10 -15 10 -20 0 -165 145 -165 165
0 8 -4 15 -10 15 -5 0 -10 7 -10 16 0 8 -22 37 -50 64 -46 45 -64 80 -40 80 6
0 10 9 10 20 0 11 5 20 10 20 6 0 10 33 10 80 0 47 -4 80 -10 80 -6 0 -10 40
-10 100 0 60 -4 100 -10 100 -5 0 -10 18 -10 40 0 22 -4 40 -10 40 -5 0 -10 9
-10 20 0 18 -7 20 -56 20 -62 0 -84 -14 -84 -54 0 -14 -4 -26 -10 -26 -5 0
-10 -13 -10 -30 0 -16 -4 -30 -10 -30 -6 0 -10 -53 -10 -140 0 -87 4 -140 10
-140 6 0 10 -18 10 -40 0 -22 5 -40 10 -40 18 0 11 -55 -10 -70 -11 -8 -20
-22 -20 -32 0 -10 -4 -18 -10 -18 -5 0 -10 -9 -10 -20 0 -11 -4 -20 -10 -20
-5 0 -10 -9 -10 -20 0 -11 -4 -20 -10 -20 -5 0 -10 -9 -10 -20 0 -11 -4 -20
-10 -20 -5 0 -10 -11 -10 -25 0 -29 -91 -128 -98 -107 -2 7 -17 12 -33 12 -16
0 -29 5 -29 10 0 6 -7 10 -15 10 -9 0 -40 25 -70 55 l-55 55 0 115 c0 70 4
115 10 115 6 0 10 14 10 30 0 17 5 30 10 30 6 0 10 69 10 186 0 193 -4 214
-44 214 -9 0 -16 5 -16 10 0 6 -9 10 -20 10 -11 0 -20 5 -20 10 0 6 -9 10 -20
10 -11 0 -20 5 -20 10 0 6 -9 10 -20 10 -11 0 -20 5 -20 10 0 6 -17 10 -38 10
-26 0 -42 6 -52 20 -13 18 -26 20 -142 20 -79 0 -128 -4 -128 -10 0 -5 -18
-10 -40 -10 -22 0 -40 -4 -40 -10 0 -5 -9 -10 -20 -10 -11 0 -20 -4 -20 -10 0
-5 -13 -10 -30 -10 -16 0 -30 -4 -30 -10 0 -5 -7 -10 -16 -10 -9 0 -29 -13
-44 -30 -15 -16 -33 -30 -39 -30 -17 0 -101 -87 -101 -105 0 -8 -4 -15 -10
-15 -5 0 -10 -9 -10 -20 0 -11 -4 -20 -10 -20 -5 0 -10 -9 -10 -20 0 -11 -4
-20 -10 -20 -5 0 -10 -8 -10 -18 0 -10 -9 -24 -20 -32 -12 -8 -20 -26 -20 -42
0 -15 -4 -28 -10 -28 -5 0 -10 -18 -10 -40 0 -22 -4 -40 -10 -40 -5 0 -10 -22
-10 -50 0 -27 -4 -50 -10 -50 -5 0 -10 -22 -10 -50 0 -27 -4 -50 -10 -50 -5 0
-10 -11 -10 -25 0 -31 -61 -95 -90 -95 -12 0 -42 21 -70 50 -27 28 -54 50 -60
50 -7 0 -25 14 -40 30 -15 17 -35 30 -44 30 -9 0 -16 5 -16 10 0 6 23 10 50
10 28 0 50 5 50 10 0 6 14 10 30 10 23 0 30 4 30 20 0 11 5 20 10 20 6 0 10
18 10 40 0 22 5 40 10 40 6 0 10 18 10 40 0 22 5 40 10 40 6 0 10 23 10 50 0
28 5 50 10 50 6 0 10 28 10 65 0 57 -3 69 -25 90 -13 14 -33 25 -45 25 -24 0
-70 42 -70 65 0 13 -20 15 -140 15 -87 0 -140 -4 -140 -10 0 -5 -9 -10 -20
-10 -11 0 -20 -4 -20 -10 0 -5 -7 -10 -15 -10 -19 0 -85 -64 -85 -82 0 -8 -9
-20 -20 -28 -11 -8 -20 -26 -20 -40 0 -14 -9 -32 -20 -40 -12 -8 -20 -26 -20
-42 0 -15 -4 -28 -10 -28 -5 0 -10 -9 -10 -20 0 -11 -4 -20 -10 -20 -5 0 -10
14 -10 30 0 17 5 30 10 30 6 0 10 17 10 38 0 26 6 42 20 52 11 8 20 20 20 28
0 7 23 35 50 62 40 39 50 55 50 82 0 22 7 39 20 48 12 8 20 26 20 42 0 15 5
28 10 28 6 0 10 8 10 18 0 10 9 24 20 32 11 8 20 21 20 30 0 9 9 22 20 30 18
13 20 26 20 142 0 79 -4 128 -10 128 -5 0 -10 14 -10 30 0 17 -4 30 -10 30 -5
0 -10 8 -10 18 0 10 -9 24 -20 32 -11 8 -20 22 -20 32 0 10 -4 18 -10 18 -5 0
-10 9 -10 20 0 11 -4 20 -10 20 -5 0 -10 9 -10 20 0 13 -7 20 -20 20 -11 0
-20 5 -20 10 0 6 -35 10 -85 10 -84 0 -86 -1 -120 -35 -22 -21 -35 -44 -35
-60 0 -14 -4 -25 -10 -25 -6 0 -10 -120 -10 -340 0 -220 -4 -340 -10 -340 -6
0 -10 -37 -10 -90 0 -53 -4 -90 -10 -90 -5 0 -10 -8 -10 -18 0 -10 -9 -24 -20
-32 -11 -8 -20 -21 -20 -30 0 -9 -9 -22 -20 -30 -11 -8 -20 -21 -20 -30 0 -9
-9 -22 -20 -30 -11 -8 -20 -21 -20 -30 0 -9 -9 -22 -20 -30 -11 -8 -20 -22
-20 -32 0 -10 -4 -18 -10 -18 -5 0 -10 -9 -10 -20 0 -11 -4 -20 -10 -20 -5 0
-10 -8 -10 -18 0 -10 -9 -24 -20 -32 -11 -8 -20 -22 -20 -32 0 -10 -4 -18 -10
-18 -5 0 -10 -8 -10 -18 0 -10 -9 -24 -20 -32 -11 -8 -20 -20 -20 -28 0 -16
-45 -62 -61 -62 -6 0 -24 -13 -39 -30 -45 -48 -60 -41 -60 30 0 33 -4 60 -10
60 -5 0 -10 18 -10 40 0 22 5 40 10 40 6 0 10 37 10 90 0 53 4 90 10 90 6 0
10 14 10 30 0 17 5 30 10 30 6 0 10 9 10 20 0 11 5 20 10 20 6 0 10 9 10 20 0
11 5 20 10 20 6 0 10 9 10 20 0 11 5 20 10 20 6 0 10 7 10 16 0 18 23 44 40
44 6 0 26 16 45 35 30 29 35 41 35 80 0 25 5 45 10 45 6 0 10 23 10 50 0 28
-4 50 -10 50 -5 0 -10 9 -10 20 0 11 -4 20 -10 20 -5 0 -10 7 -10 16 0 20 -24
44 -44 44 -9 0 -16 5 -16 10 0 6 -9 10 -20 10 -11 0 -20 5 -20 10 0 6 -43 10
-110 10 -67 0 -110 -4 -110 -10 0 -5 -8 -10 -18 -10 -10 0 -24 -9 -32 -20 -8
-11 -22 -20 -32 -20 -16 0 -18 -12 -18 -130 0 -80 4 -130 10 -130 6 0 10 -8
10 -18 0 -10 9 -24 20 -32 11 -8 20 -22 20 -32 0 -11 7 -18 20 -18 32 0 26
-46 -10 -80 -16 -15 -30 -35 -30 -44 0 -9 -4 -16 -10 -16 -5 0 -10 -9 -10 -20
0 -11 -4 -20 -10 -20 -6 0 -10 -47 -10 -120 0 -73 4 -120 10 -120 6 0 10 -13
10 -30 0 -16 -2 -30 -5 -30 -13 0 -95 91 -95 105 0 8 -4 15 -10 15 -5 0 -10 9
-10 20 0 11 -4 20 -10 20 -5 0 -10 14 -10 30 0 17 -4 30 -10 30 -6 0 -10 37
-10 90 0 53 -4 90 -10 90 -5 0 -10 9 -10 20 0 11 5 20 10 20 6 0 10 40 10 100
0 60 4 100 10 100 6 0 10 33 10 80 0 47 4 80 10 80 6 0 10 50 10 130 0 80 -4
130 -10 130 -5 0 -10 18 -10 40 0 22 -4 40 -10 40 -5 0 -10 7 -10 16 0 20 -24
44 -44 44 -9 0 -16 5 -16 10 0 6 -43 10 -110 10 -67 0 -110 -4 -110 -10 0 -5
-9 -10 -20 -10 -11 0 -20 -4 -20 -10 0 -5 -9 -10 -20 -10 -11 0 -20 -4 -20
-10 0 -5 -7 -10 -15 -10 -20 0 -145 -125 -145 -145 0 -8 -4 -15 -10 -15 -5 0
-10 -9 -10 -20 0 -11 -4 -20 -10 -20 -5 0 -10 -9 -10 -20 0 -11 -4 -20 -10
-20 -5 0 -10 -13 -10 -28 0 -16 -8 -34 -20 -42 -11 -8 -20 -22 -20 -32 0 -10
-4 -18 -10 -18 -6 0 -10 40 -10 100 0 60 -4 100 -10 100 -6 0 -10 40 -10 100
0 60 -4 100 -10 100 -5 0 -10 9 -10 20 0 11 -4 20 -10 20 -5 0 -10 9 -10 20 0
11 -4 20 -10 20 -5 0 -10 7 -10 15 0 20 -65 85 -85 85 -8 0 -15 5 -15 10 0 6
-9 10 -20 10 -11 0 -20 5 -20 10 0 6 -40 10 -100 10 -60 0 -100 -4 -100 -10 0
-15 -70 -12 -86 4 -8 8 -14 22 -14 30 0 9 -4 16 -10 16 -5 0 -10 9 -10 20 0
13 -7 20 -20 20 -11 0 -20 5 -20 10 0 6 -42 10 -105 10 l-106 0 -44 -45 c-42
-42 -45 -48 -45 -100 0 -48 -2 -55 -20 -55 -11 0 -20 5 -20 10 0 6 -9 10 -20
10 -11 0 -20 5 -20 10 0 6 -9 10 -20 10 -11 0 -20 5 -20 10 0 6 -9 10 -20 10
-11 0 -20 5 -20 10 0 6 -9 10 -20 10 -11 0 -20 5 -20 10 0 6 -16 10 -36 10
-27 0 -43 7 -64 30 -15 17 -35 30 -44 30 -9 0 -16 5 -16 10 0 6 -9 10 -20 10
-11 0 -20 5 -20 10 0 6 -9 10 -20 10 -11 0 -20 5 -20 10 0 6 -9 10 -20 10 -11
0 -20 5 -20 10 0 6 -8 10 -18 10 -10 0 -24 9 -32 20 -8 11 -22 20 -32 20 -10
0 -18 5 -18 10 0 6 -7 10 -16 10 -9 0 -29 14 -44 30 -15 17 -33 30 -40 30 -7
0 -25 14 -40 30 -15 17 -33 30 -40 30 -6 0 -33 23 -60 50 -27 28 -54 50 -59
50 -14 0 -381 367 -381 381 0 5 -22 32 -50 59 -27 27 -50 54 -50 60 0 7 -14
25 -30 40 -17 15 -30 33 -30 40 0 7 -13 25 -30 40 -16 15 -30 34 -30 42 0 7
-9 20 -20 28 -11 8 -20 21 -20 30 0 9 -9 22 -20 30 -11 8 -20 21 -20 30 0 9
-9 22 -20 30 -12 8 -20 26 -20 42 0 15 -4 28 -10 28 -5 0 -10 9 -10 20 0 11
-4 20 -10 20 -5 0 -10 14 -10 30 0 17 -4 30 -10 30 -5 0 -10 8 -10 18 0 10 -9
24 -20 32 -14 10 -20 26 -20 52 0 21 -4 38 -10 38 -5 0 -10 18 -10 40 0 22 -4
40 -10 40 -5 0 -10 18 -10 40 0 22 -4 40 -10 40 -5 0 -10 14 -10 30 0 17 -4
30 -10 30 -5 0 -10 23 -10 50 0 28 -4 50 -10 50 -6 0 -10 43 -10 110 0 67 4
110 10 110 6 0 10 23 10 50 0 28 5 50 10 50 6 0 10 18 10 40 0 22 5 40 10 40
6 0 10 14 10 30 0 17 5 30 10 30 6 0 10 9 10 20 0 11 5 20 10 20 6 0 10 14 10
30 0 17 5 30 10 30 6 0 10 14 10 30 0 17 5 30 10 30 6 0 10 13 10 28 0 16 8
34 20 42 11 8 20 22 20 32 0 10 5 18 10 18 6 0 10 12 10 26 0 17 16 41 50 74
28 27 50 54 50 59 0 14 226 241 240 241 6 0 42 32 80 70 46 47 77 70 92 70 13
0 30 9 38 20 8 11 21 20 30 20 9 0 22 9 30 20 8 11 22 20 32 20 10 0 18 5 18
10 0 6 14 10 30 10 17 0 30 5 30 10 0 6 9 10 20 10 11 0 20 5 20 10 0 6 9 10
20 10 11 0 20 5 20 10 0 6 9 10 20 10 11 0 20 5 20 10 0 6 8 10 18 10 10 0 24
9 32 20 8 11 21 20 30 20 9 0 22 9 30 20 11 15 26 20 62 20 26 0 48 5 48 10 0
6 14 10 30 10 17 0 30 5 30 10 0 6 9 10 20 10 11 0 20 5 20 10 0 6 9 10 20 10
11 0 20 5 20 10 0 6 14 10 30 10 17 0 30 5 30 10 0 6 18 10 40 10 22 0 40 5
40 10 0 6 13 10 28 10 16 0 34 8 42 20 9 12 26 20 45 20 16 0 49 7 73 15 49
17 151 36 235 42 31 3 57 9 57 14 0 5 18 9 40 9 22 0 40 5 40 10 0 6 23 10 50
10 28 0 50 5 50 10 0 6 18 10 40 10 22 0 40 5 40 10 0 6 37 10 90 10 53 0 90
4 90 10 0 6 14 10 30 10 17 0 30 5 30 10 0 6 27 10 60 10 33 0 60 4 60 10 0 6
53 10 140 10 87 0 140 -4 140 -10 0 -6 27 -10 60 -10 33 0 60 -4 60 -10 0 -6
29 -10 68 -10 56 0 70 -3 82 -20 12 -17 26 -20 82 -20 39 0 68 -4 68 -10 0 -5
9 -10 20 -10 11 0 20 -4 20 -10 0 -5 7 -10 16 -10 18 0 44 -23 44 -40 0 -6 27
-38 60 -70 33 -32 60 -65 60 -72 0 -8 9 -20 20 -28 11 -8 20 -20 20 -27 0 -16
85 -103 100 -103 16 0 60 -47 60 -65 0 -8 7 -15 16 -15 18 0 44 -23 44 -39 0
-14 206 -221 221 -221 5 0 32 -22 59 -50 27 -27 56 -50 64 -50 9 0 16 -4 16
-10 0 -5 9 -10 20 -10 11 0 20 -4 20 -10 0 -6 39 -10 96 -10 98 0 124 9 124
44 0 9 5 16 10 16 6 0 10 9 10 20 0 11 5 20 10 20 6 0 10 33 10 80 0 47 -4 80
-10 80 -5 0 -10 11 -10 25 0 34 -239 275 -273 275 -12 0 -29 9 -37 20 -8 11
-22 20 -32 20 -10 0 -18 5 -18 10 0 6 -8 10 -18 10 -10 0 -24 9 -32 20 -8 11
-22 20 -32 20 -10 0 -18 5 -18 10 0 6 -8 10 -18 10 -10 0 -24 9 -32 20 -8 11
-22 20 -32 20 -10 0 -18 5 -18 10 0 6 -9 10 -20 10 -11 0 -20 5 -20 10 0 6 -9
10 -20 10 -11 0 -20 5 -20 10 0 6 -9 10 -20 10 -11 0 -20 5 -20 10 0 6 -9 10
-20 10 -11 0 -20 5 -20 10 0 6 -9 10 -20 10 -11 0 -20 5 -20 10 0 6 -9 10 -20
10 -11 0 -20 5 -20 10 0 6 -8 10 -18 10 -10 0 -24 9 -32 20 -8 11 -20 20 -28
20 -17 0 -82 65 -82 82 0 8 -9 20 -20 28 -11 8 -20 22 -20 32 0 10 -4 18 -10
18 -5 0 -10 14 -10 30 0 17 -4 30 -10 30 -5 0 -10 8 -10 18 0 10 -9 24 -20 32
-11 8 -20 21 -20 30 0 9 -9 22 -20 30 -11 8 -20 22 -20 32 0 10 -4 18 -10 18
-5 0 -10 9 -10 20 0 11 -4 20 -10 20 -5 0 -10 8 -10 18 0 10 -9 24 -20 32 -12
8 -20 26 -20 42 0 15 -4 28 -10 28 -5 0 -10 14 -10 30 0 17 -4 30 -10 30 -5 0
-10 9 -10 20 0 11 -4 20 -10 20 -5 0 -10 9 -10 20 0 11 -4 20 -10 20 -5 0 -10
14 -10 30 0 17 -4 30 -10 30 -5 0 -10 14 -10 30 0 17 -4 30 -10 30 -6 0 -10
93 -10 260 0 167 4 260 10 260 6 0 10 23 10 50 0 28 5 50 10 50 6 0 10 33 10
80 0 47 4 80 10 80 6 0 10 30 10 70 0 40 4 70 10 70 6 0 10 33 10 80 0 47 4
80 10 80 6 0 10 14 10 30 0 17 5 30 10 30 6 0 10 17 10 38 0 26 6 42 20 52 11
8 20 22 20 32 0 10 5 18 10 18 6 0 10 9 10 20 0 11 5 20 10 20 6 0 10 14 10
30 0 17 5 30 10 30 6 0 10 9 10 20 0 11 5 20 10 20 6 0 10 14 10 30 0 17 5 30
10 30 6 0 10 9 10 20 0 11 5 20 10 20 6 0 10 9 10 20 0 11 5 20 10 20 6 0 10
9 10 20 0 11 5 20 10 20 6 0 10 9 10 20 0 11 5 20 10 20 6 0 10 8 10 18 0 10
9 24 20 32 11 8 20 21 20 28 0 7 18 31 40 52 22 21 40 43 40 49 0 16 307 321
323 321 7 0 19 9 27 20 8 12 26 20 42 20 15 0 28 5 28 10 0 6 14 10 30 10 17
0 30 5 30 10 0 6 23 10 50 10 28 0 50 5 50 10 0 6 14 10 30 10 17 0 30 5 30
10 0 6 27 10 60 10 33 0 60 4 60 10 0 6 40 10 100 10 60 0 100 -4 100 -10z
m-780 -3340 c15 -16 34 -30 42 -30 7 0 20 -9 28 -20 8 -11 22 -20 32 -20 10 0
18 -4 18 -10 0 -5 8 -10 18 -10 10 0 24 -9 32 -20 8 -11 22 -20 32 -20 10 0
18 -4 18 -10 0 -5 9 -10 20 -10 11 0 20 -4 20 -10 0 -5 8 -10 18 -10 10 0 24
-9 32 -20 8 -11 20 -20 27 -20 16 0 103 -85 103 -101 0 -6 18 -28 40 -49 22
-21 40 -46 40 -54 0 -9 7 -16 16 -16 8 0 22 -7 30 -15 13 -13 12 -18 -10 -40
-30 -30 -66 -32 -86 -5 -8 11 -20 20 -27 20 -16 0 -343 325 -343 341 0 14 -25
39 -40 39 -15 0 -60 46 -60 62 0 8 -9 20 -20 28 -19 14 -27 30 -14 30 3 0 19
-13 34 -30z m4200 -3520 c0 -5 7 -10 15 -10 20 0 105 -85 105 -105 0 -8 5 -15
10 -15 6 0 10 -9 10 -20 0 -11 5 -20 10 -20 6 0 10 -60 10 -160 0 -100 -4
-160 -10 -160 -6 0 -10 -33 -10 -80 0 -47 -4 -80 -10 -80 -5 0 -10 -18 -10
-40 0 -22 -4 -40 -10 -40 -5 0 -10 -18 -10 -40 0 -22 -4 -40 -10 -40 -5 0 -10
-12 -10 -26 0 -16 -12 -37 -30 -54 -24 -22 -30 -36 -30 -70 0 -36 -17 -70 -34
-70 -3 0 -6 41 -6 90 0 53 -4 90 -10 90 -6 0 -10 27 -10 60 0 33 -4 60 -10 60
-5 0 -10 23 -10 50 0 28 -4 50 -10 50 -6 0 -10 47 -10 120 0 73 -4 120 -10
120 -5 0 -10 14 -10 30 0 17 -4 30 -10 30 -5 0 -10 23 -10 50 0 28 -4 50 -10
50 -5 0 -10 14 -10 30 0 17 5 30 10 30 6 0 10 25 10 55 0 49 4 60 33 90 31 32
87 49 87 25z m-3605 -55 c14 -13 25 -35 25 -47 0 -13 9 -30 20 -38 11 -8 20
-22 20 -32 0 -10 5 -18 10 -18 6 0 10 -33 10 -80 0 -47 -4 -80 -10 -80 -5 0
-10 -8 -10 -18 0 -10 -9 -24 -20 -32 -11 -8 -20 -22 -20 -32 0 -10 -4 -18 -10
-18 -5 0 -10 -13 -10 -30 0 -16 -4 -30 -10 -30 -5 0 -10 -8 -10 -18 0 -10 -9
-24 -20 -32 -11 -8 -20 -22 -20 -32 0 -10 -4 -18 -10 -18 -5 0 -10 -9 -10 -20
0 -24 -6 -25 -28 -3 -12 12 -13 18 -4 21 8 2 12 35 12 113 0 66 4 109 10 109
6 0 10 43 10 110 0 67 4 110 10 110 6 0 10 25 10 55 0 46 12 83 28 85 2 0 14
-11 27 -25z m-695 -525 c0 -5 7 -10 15 -10 29 0 65 -47 65 -85 0 -19 -4 -35
-10 -35 -5 0 -10 -7 -10 -16 0 -9 -13 -29 -30 -44 -16 -15 -30 -35 -30 -44 0
-9 -4 -16 -10 -16 -5 0 -10 9 -10 20 0 11 -4 20 -10 20 -5 0 -10 13 -10 28 0
16 -8 34 -20 42 -11 8 -20 22 -20 32 0 10 -4 18 -10 18 -20 0 -9 31 23 65 31
32 67 46 67 25z m-1680 -170 c0 -60 -4 -100 -10 -100 -5 0 -10 -13 -10 -28 0
-16 -8 -34 -20 -42 -12 -8 -20 -26 -20 -42 0 -15 -4 -28 -10 -28 -5 0 -10 -22
-10 -50 0 -27 -4 -50 -10 -50 -5 0 -10 -13 -10 -30 0 -16 -4 -30 -10 -30 -5 0
-10 -21 -10 -46 0 -26 -6 -51 -14 -60 -21 -21 -26 -18 -26 16 0 17 5 30 10 30
6 0 10 23 10 50 0 28 5 50 10 50 6 0 10 18 10 40 0 22 5 40 10 40 6 0 10 27
10 60 0 33 4 60 10 60 6 0 10 22 10 48 0 36 5 51 20 62 16 11 20 26 20 68 0
48 13 81 33 82 4 0 7 -45 7 -100z m3700 30 c0 -5 14 -10 30 -10 17 0 30 -4 30
-10 0 -5 9 -10 20 -10 11 0 20 -4 20 -10 0 -5 11 -10 25 -10 16 0 39 -13 60
-35 34 -33 35 -37 35 -110 0 -43 -4 -75 -10 -75 -6 0 -10 -27 -10 -60 0 -33
-4 -60 -10 -60 -5 0 -10 -13 -10 -30 0 -16 -4 -30 -10 -30 -5 0 -10 -9 -10
-20 0 -11 -4 -20 -10 -20 -5 0 -10 -9 -10 -20 0 -11 -4 -20 -10 -20 -5 0 -10
-7 -10 -15 0 -25 -146 -165 -173 -165 -12 0 -29 -9 -37 -20 -8 -11 -20 -20
-27 -20 -19 0 -103 86 -103 105 0 8 -7 15 -16 15 -22 0 -53 32 -36 38 20 6 15
76 -8 92 -11 8 -20 22 -20 32 0 10 -4 18 -10 18 -5 0 -10 13 -10 28 0 16 -8
34 -20 42 -14 10 -20 26 -20 50 0 24 6 40 20 50 11 8 20 20 20 28 0 7 23 35
50 62 28 27 50 54 50 60 0 16 67 80 85 80 8 0 15 5 15 10 0 6 9 10 20 10 11 0
20 5 20 10 0 6 9 10 20 10 11 0 20 5 20 10 0 6 9 10 20 10 11 0 20 -4 20 -10z
m-934 -24 c8 -8 14 -20 14 -26 0 -6 18 -29 40 -50 38 -36 52 -70 30 -70 -5 0
-10 -9 -10 -20 0 -11 -4 -20 -10 -20 -5 0 -10 -11 -10 -25 0 -17 -15 -41 -45
-70 -40 -40 -49 -45 -90 -45 -25 0 -45 5 -45 10 0 6 -25 10 -55 10 -74 0 -105
28 -105 95 0 25 5 45 10 45 6 0 10 11 10 25 0 29 79 115 105 115 8 0 15 5 15
10 0 6 9 10 20 10 11 0 20 5 20 10 0 16 89 12 106 -4z m4399 -181 c30 -30 55
-61 55 -70 0 -8 5 -15 10 -15 6 0 10 -9 10 -20 0 -11 5 -20 10 -20 6 0 10 -9
10 -20 0 -11 5 -20 10 -20 6 0 10 -9 10 -20 0 -11 5 -20 10 -20 6 0 10 -60 10
-160 0 -100 -4 -160 -10 -160 -5 0 -10 -11 -10 -25 0 -28 -118 -155 -145 -155
-8 0 -15 -4 -15 -10 0 -6 -40 -10 -100 -10 -60 0 -100 4 -100 10 0 6 -13 10
-30 10 -16 0 -30 5 -30 10 0 6 -11 10 -25 10 -27 0 -115 78 -115 103 0 7 -9
19 -20 27 -11 8 -20 22 -20 32 0 10 -4 18 -10 18 -5 0 -10 23 -10 50 0 28 -4
50 -10 50 -5 0 -10 18 -10 40 0 22 5 40 10 40 6 0 10 14 10 30 0 17 5 30 10
30 6 0 10 14 10 30 0 17 5 30 10 30 6 0 10 9 10 20 0 11 5 20 10 20 6 0 10 7
10 15 0 20 45 65 65 65 8 0 15 5 15 10 0 6 9 10 20 10 11 0 20 5 20 10 0 6 14
10 30 10 17 0 30 5 30 10 0 6 35 10 86 10 94 0 114 10 114 54 0 14 2 26 5 26
3 0 30 -25 60 -55z m-1465 -1005 c0 -22 5 -40 10 -40 6 0 10 -9 10 -20 0 -11
5 -20 10 -20 6 0 10 -13 10 -30 0 -16 5 -30 10 -30 6 0 10 -9 10 -20 0 -11 5
-20 10 -20 6 0 10 -13 10 -30 0 -16 5 -30 10 -30 6 0 10 -13 10 -30 0 -16 5
-30 10 -30 6 0 10 -18 10 -40 0 -22 5 -40 10 -40 6 0 10 -13 10 -30 0 -16 5
-30 10 -30 6 0 10 -13 10 -30 0 -16 5 -30 10 -30 6 0 10 -13 10 -30 0 -16 5
-30 10 -30 6 0 10 -13 10 -30 0 -16 5 -30 10 -30 6 0 10 -30 10 -70 0 -40 4
-70 10 -70 6 0 10 -27 10 -60 0 -33 4 -60 10 -60 6 0 10 -30 10 -70 0 -40 -4
-70 -10 -70 -6 0 -10 -37 -10 -90 0 -53 -4 -90 -10 -90 -5 0 -10 -18 -10 -40
0 -22 -4 -40 -10 -40 -5 0 -10 -13 -10 -30 0 -16 -4 -30 -10 -30 -5 0 -10 -9
-10 -20 0 -11 -4 -20 -10 -20 -5 0 -10 -9 -10 -20 0 -11 -4 -20 -10 -20 -5 0
-10 -9 -10 -20 0 -11 -4 -20 -10 -20 -5 0 -10 -13 -10 -30 0 -16 -4 -30 -10
-30 -5 0 -10 -9 -10 -20 0 -11 -4 -20 -10 -20 -5 0 -10 -8 -10 -18 0 -10 -9
-24 -20 -32 -11 -8 -20 -25 -20 -37 0 -27 -140 -173 -165 -173 -8 0 -15 -4
-15 -10 0 -5 -9 -10 -20 -10 -11 0 -20 -4 -20 -10 0 -5 -18 -10 -40 -10 -22 0
-40 5 -40 10 0 6 -11 10 -25 10 -18 0 -47 21 -100 75 -41 41 -75 81 -75 88 0
7 -9 19 -20 27 -11 8 -20 22 -20 32 0 10 -4 18 -10 18 -5 0 -10 8 -10 18 0 10
-9 24 -20 32 -11 8 -20 22 -20 32 0 10 -4 18 -10 18 -5 0 -10 9 -10 20 0 11
-4 20 -10 20 -5 0 -10 18 -10 40 0 22 -4 40 -10 40 -5 0 -10 8 -10 18 0 10 -9
24 -20 32 -15 11 -20 26 -20 62 0 26 -4 48 -10 48 -6 0 -10 57 -10 150 0 93 4
150 10 150 6 0 10 23 10 50 0 28 5 50 10 50 6 0 10 12 10 26 0 16 12 37 30 54
17 16 30 38 30 52 0 13 9 30 20 38 11 8 20 21 20 30 0 9 9 22 20 30 11 8 20
21 20 30 0 9 9 22 20 30 11 8 20 20 20 28 0 7 27 40 60 72 33 32 60 66 60 74
0 9 5 16 10 16 6 0 10 7 10 15 0 9 41 56 90 105 50 49 90 94 90 101 0 6 14 24
30 39 17 15 30 33 30 39 0 13 60 79 73 80 4 1 7 -17 7 -39z"/>
</g>
</svg>
